<svg width="40" height="50" viewBox="0 0 40 50" fill="none" xmlns="http://www.w3.org/2000/svg">
<path d="M25 0H5C3.67392 0 2.40215 0.526784 1.46447 1.46447C0.526784 2.40215 0 3.67392 0 5V45C0 46.3261 0.526784 47.5979 1.46447 48.5355C2.40215 49.4732 3.67392 50 5 50H35C36.3261 50 37.5979 49.4732 38.5355 48.5355C39.4732 47.5979 40 46.3261 40 45V15L25 0ZM13.615 38.53C14.3025 38.53 15.0675 38.3775 15.52 38.2L15.865 39.9825C15.445 40.1925 14.5 40.4175 13.2725 40.4175C9.78 40.4175 7.98 38.245 7.98 35.365C7.9775 31.92 10.4375 30 13.495 30C14.68 30 15.5775 30.24 15.9825 30.45L15.5175 32.265C14.9086 32.0144 14.2559 31.8877 13.5975 31.8925C11.7825 31.8925 10.3725 32.9875 10.3725 35.235C10.375 37.255 11.5775 38.53 13.615 38.53ZM19.8425 40.4175C18.69 40.4175 17.55 40.12 16.98 39.805L17.445 37.915C18.06 38.23 19.005 38.545 19.98 38.545C21.03 38.545 21.585 38.11 21.585 37.45C21.585 36.82 21.105 36.46 19.89 36.025C18.21 35.44 17.1175 34.5125 17.1175 33.0425C17.1175 31.32 18.555 30 20.94 30C22.0775 30 22.9175 30.24 23.5175 30.5075L23.0075 32.3525C22.3484 32.0332 21.6249 31.869 20.8925 31.8725C19.9025 31.8725 19.425 32.325 19.425 32.8475C19.425 33.4925 19.995 33.7775 21.2975 34.2725C23.0825 34.9325 23.9225 35.8625 23.9225 37.285C23.92 38.98 22.615 40.4175 19.8425 40.4175ZM27.9425 40.4175C26.79 40.4175 25.65 40.12 25.08 39.805L25.545 37.915C26.16 38.23 27.105 38.545 28.08 38.545C29.13 38.545 29.685 38.11 29.685 37.45C29.685 36.82 29.205 36.46 27.99 36.025C26.31 35.44 25.2175 34.5125 25.2175 33.0425C25.2175 31.32 26.655 30 29.04 30C30.1775 30 31.0175 30.24 31.6175 30.5075L31.1075 32.3525C30.4484 32.0332 29.7249 31.869 28.9925 31.8725C28.0025 31.8725 27.525 32.325 27.525 32.8475C27.525 33.4925 28.095 33.7775 29.3975 34.2725C31.1825 34.9325 32.0225 35.8625 32.0225 37.285C32.0225 38.98 30.715 40.4175 27.9425 40.4175ZM25 17.5H22.5V5L35 17.5H25Z" fill="black"/>
</svg>
