<svg width="40" height="50" viewBox="0 0 40 50" fill="none" xmlns="http://www.w3.org/2000/svg">
<path d="M25 0H5C3.67392 0 2.40215 0.526784 1.46447 1.46447C0.526784 2.40215 0 3.67392 0 5V45C0 46.3261 0.526784 47.5979 1.46447 48.5355C2.40215 49.4732 3.67392 50 5 50H35C36.3261 50 37.5979 49.4732 38.5355 48.5355C39.4732 47.5979 40 46.3261 40 45V15L25 0ZM22.5 5L35 17.5H22.5V5ZM11.3275 40H9.4275V36.4725H6.2875V40H4.37V31.5675H6.2875V34.8075H9.43V31.5675H11.33V40H11.3275ZM18.8275 33.17H16.525V40H14.61V33.17H12.3475V31.5675H18.8275V33.17ZM27.045 40L26.92 36.7725C26.8775 35.76 26.845 34.5325 26.845 33.305H26.805C26.545 34.3825 26.1925 35.5825 25.8675 36.5725L24.8425 39.8625H23.35L22.4525 36.595C22.1487 35.5103 21.8935 34.4125 21.6875 33.305H21.66C21.6075 34.445 21.575 35.745 21.5125 36.795L21.3625 40H19.6L20.14 31.5675H22.6775L23.505 34.3825C23.765 35.36 24.03 36.41 24.215 37.3975H24.2575C24.495 36.42 24.78 35.3075 25.0575 34.37L25.955 31.5675H28.445L28.9075 40H27.045ZM35.63 40H30.36V31.5675H32.2775V38.3975H35.6325V40H35.63Z" fill="black"/>
</svg>
