<svg width="40" height="50" viewBox="0 0 40 50" fill="none" xmlns="http://www.w3.org/2000/svg">
<path d="M25 0H5C3.67392 0 2.40215 0.526784 1.46447 1.46447C0.526784 2.40215 0 3.67392 0 5V45C0 46.3261 0.526784 47.5979 1.46447 48.5355C2.40215 49.4732 3.67392 50 5 50H35C36.3261 50 37.5979 49.4732 38.5355 48.5355C39.4732 47.5979 40 46.3261 40 45V15L25 0ZM18.1375 35.465C18.1375 38.8275 16.5275 40 13.935 40C13.3225 40 12.5175 39.895 11.9925 39.72L12.29 37.5675C12.6575 37.69 13.13 37.7775 13.655 37.7775C14.775 37.7775 15.4775 37.27 15.4775 35.4325V28.0075H18.1375V35.465ZM23.245 39.9825C21.8975 39.9825 20.5675 39.63 19.9025 39.265L20.445 37.0575C21.1625 37.425 22.2675 37.7925 23.405 37.7925C24.6325 37.7925 25.2775 37.285 25.2775 36.515C25.2775 35.7775 24.7175 35.3575 23.3 34.85C21.34 34.17 20.0625 33.0825 20.0625 31.365C20.0625 29.35 21.7425 27.81 24.5275 27.81C25.86 27.81 26.84 28.09 27.54 28.405L26.945 30.5575C26.4725 30.33 25.6325 29.9975 24.4775 29.9975C23.3225 29.9975 22.76 30.5225 22.76 31.135C22.76 31.8875 23.4275 32.2225 24.9475 32.7975C27.0325 33.57 28.0125 34.6525 28.0125 36.3175C28.0075 38.3 26.4875 39.9825 23.245 39.9825ZM25 17.5H22.5V5L35 17.5H25Z" fill="black"/>
</svg>
